:SAMPLES-PER-SECOND 30
:FULLY-SPECIFIED
:DEGREES
201
root  35.05609167 36.46432171 -14.90358668 11.75924969 10.86639214 5.233561039
lowerback  -8.727280617 2.908600092 2.87694025
upperback  -4.587049961 3.253279924 -4.825829983
thorax  0.5687100291 1.344120026 -6.352940083
lowerneck  -14.73859978 -5.232719898 -1.196460009
upperneck  12.9296999 -8.23239994 7.040150166
head  6.723859787 -3.551099777 1.600789905
lclavicle  0 -4.497500157e-015 -2.743230041e-014
lhumerus  -44.28649902 27.78879929 66.21970367
lradius  -0.1160789207 -6.507048965e-006 25.85820198
lwrist  4.824992743e-007 -3.790274832e-007 -34.76089859
lhand  -4.44407391e-031 -37.38539886 -10.50319958
lfingers  90 7.125020027 -90
lthumb  95.00541274 -25.32483892 101.5716485
rclavicle  0 -4.497500157e-015 -2.743230041e-014
rhumerus  51.63159943 -9.211009979 -48.85969925
rradius  -5.16745672e-007 2.214343908e-008 56.95410156
rwrist  1.380293725e-006 2.528095422e-007 -171.7570038
rhand  -1.771241604e-031 4.589379787 -7.989200115
rfingers  -90 -7.125020027 -90
rthumb  -85.26126953 -8.150156773 -59.68400277
rfemur  -14.99801922 10.68351269 13.69325924
rtibia  -3.437485933 1.144608736 24.98110771
rfoot  -3.149753094 -15.8114748 -44.13781738
rtoes  3.835952967 19.64349068 -101.2799239
lfemur  -12.86459351 -23.44629288 -19.37520409
ltibia  3.260074139 1.816686392 15.42468262
lfoot  1.273270965 -28.95375061 31.12891197
ltoes  -8.656471972 -18.09912799 -116.107789
202
root  35.05696575 36.46487739 -14.9062014 11.73674583 10.71392536 5.198194981
lowerback  -8.698929787 2.859970331 2.799809933
upperback  -4.538740158 3.200550079 -4.783420086
thorax  0.5901600122 1.323040009 -6.268939972
lowerneck  -14.91380024 -5.147379875 -1.159890056
upperneck  12.94550037 -8.110190392 6.977719784
head  6.749229908 -3.488600016 1.584330082
lclavicle  0 -4.497500157e-015 -2.743230041e-014
lhumerus  -44.21709824 27.75180054 66.3844986
lradius  -0.1161061302 -6.507048965e-006 25.89450264
lwrist  4.824992743e-007 -3.790274832e-007 -34.56359863
lhand  -4.445230289e-031 -37.4048996 -10.54539967
lfingers  90 7.125020027 -90
lthumb  95.02386042 -25.365418 101.5964714
rclavicle  0 -4.497500157e-015 -2.743230041e-014
rhumerus  50.75189972 -9.107741356 -48.71730042
rradius  -5.16745672e-007 2.214343908e-008 58.35789871
rwrist  1.380293725e-006 2.528095422e-007 -172.4360046
rhand  -1.771117769e-031 4.539199829 -7.899020195
rfingers  -90 -7.125020027 -90
rthumb  -85.22658851 -8.224488045 -59.72621382
rfemur  -14.99195004 10.72575474 13.68785572
rtibia  -3.400409937 1.147562385 24.94313049
rfoot  -3.115080118 -15.86319351 -44.04661179
rtoes  3.848701829 19.64109169 -101.3178503
lfemur  -12.85861778 -23.38579178 -19.35821724
ltibia  3.240512609 1.787029505 15.44680977
lfoot  1.258012772 -28.89899635 31.18202782
ltoes  -8.680535279 -18.08789938 -116.1852703
203
root  35.05690567 36.46690489 -14.90873953 11.72045803 10.57498455 5.098992348
lowerback  -8.672559738 2.813980103 2.667350054
upperback  -4.516210079 3.150180101 -4.764339924
thorax  0.5847939849 1.300349951 -6.178279877
lowerneck  -14.9691 -5.074090004 -1.145689964
upperneck  12.94999981 -8.00467968 6.939360142
head  6.753260136 -3.437550306 1.580170035
lclavicle  0 -4.497500157e-015 -2.743230041e-014
lhumerus  -44.24300003 27.69070053 66.50930023
lradius  -0.116130963 -6.507048965e-006 26.02400208
lwrist  4.824992743e-007 -3.790274832e-007 -34.2582016
lhand  -4.444791312e-031 -37.39749908 -10.5717001
lfingers  90 7.125020027 -90
lthumb  95.02628886 -25.39151039 101.591122
rclavicle  0 -4.497500157e-015 -2.743230041e-014
rhumerus  49.72799683 -8.91054821 -48.51850128
rradius  -5.16745672e-007 2.214343908e-008 59.89730072
rwrist  1.380293725e-006 2.528095422e-007 -172.6889954
rhand  -1.771176184e-031 4.562940121 -7.830850124
rfingers  -90 -7.125020027 -90
rthumb  -85.18647568 -8.285030863 -59.69816871
rfemur  -14.97430038 10.76733112 13.73485565
rtibia  -3.334731817 1.175867915 24.82847786
rfoot  -3.048221588 -15.9068861 -43.97727966
rtoes  3.848061017 19.64121247 -101.3159439
lfemur  -12.98991776 -23.39528656 -19.20497131
ltibia  3.137208939 1.751799345 15.65096188
lfoot  1.274162889 -28.90235901 31.3142662
ltoes  -8.694221852 -18.08149539 -116.2293605
204
root  35.05546089 36.46802226 -14.90829498 11.69674206 10.43117142 5.050853252
lowerback  -8.654620171 2.771529913 2.578210354
upperback  -4.518529892 3.098829985 -4.737130165
thorax  0.5600889921 1.274989963 -6.104219913
lowerneck  -14.94550037 -4.994440079 -1.106960058
upperneck  12.91689968 -7.896580696 6.914480209
head  6.731329918 -3.386729717 1.578709841
lclavicle  0 -4.497500157e-015 -2.743230041e-014
lhumerus  -44.33909988 27.65099907 66.55809784
lradius  -0.1161534488 -6.507048965e-006 26.17970085
lwrist  4.824992743e-007 -3.790274832e-007 -34.04159927
lhand  -4.443759899e-031 -37.38010025 -10.67660046
lfingers  90 7.125020027 -90
lthumb  95.04148128 -25.49496238 101.5825369
rclavicle  0 -4.497500157e-015 -2.743230041e-014
rhumerus  48.54199982 -8.671000481 -48.20360184
rradius  -5.16745672e-007 2.214343908e-008 61.53710175
rwrist  1.380293725e-006 2.528095422e-007 -173.4019928
rhand  -1.771144798e-031 4.550199986 -7.837039948
rfingers  -90 -7.125020027 -90
rthumb  -85.19252728 -8.278801078 -59.71107006
rfemur  -14.95704746 10.7759943 13.74772072
rtibia  -3.292532921 1.157433033 24.76517868
rfoot  -3.001789093 -16.00723457 -43.86703873
rtoes  3.864937867 19.63802448 -101.3661572
lfemur  -12.99713326 -23.32621002 -19.16304207
ltibia  3.106150627 1.741079569 15.69537258
lfoot  1.269298077 -28.90038872 31.37093735
ltoes  -8.70148305 -18.0780927 -116.2527579
205
root  35.0544096 36.46908257 -14.90776633 11.65236092 10.27966976 4.998962402
lowerback  -8.671030045 2.715519905 2.480320215
upperback  -4.5041399 3.030800104 -4.710309982
thorax  0.5693820119 1.242670059 -6.025740147
lowerneck  -14.97659969 -4.900320053 -1.034909964
upperneck  12.89379978 -7.774660587 6.876369953
head  6.719719887 -3.326989889 1.567859888
lclavicle  0 -4.497500157e-015 -2.743230041e-014
lhumerus  -44.43170166 27.6060009 66.59700012
lradius  -0.1161735803 -6.507048965e-006 26.30620193
lwrist  4.824992743e-007 -3.790274832e-007 -34.03620148
lhand  -4.443244412e-031 -37.37139893 -10.65170002
lfingers  90 7.125020027 -90
lthumb  95.03184661 -25.47081639 101.5708381
rclavicle  0 -4.497500157e-015 -2.743230041e-014
rhumerus  47.52389908 -8.436699867 -48.13970184
rradius  -5.16745672e-007 2.214343908e-008 62.99649811
rwrist  1.380293725e-006 2.528095422e-007 -173.7640076
rhand  -1.771120469e-031 4.540299892 -7.838359833
rfingers  -90 -7.125020027 -90
rthumb  -85.19541795 -8.276999402 -59.72075502
rfemur  -14.90039825 10.77583694 13.7604351
rtibia  -3.236720562 1.134078503 24.67478943
rfoot  -2.960751295 -16.13385773 -43.78375244
rtoes  3.858493733 19.63924348 -101.3469832
lfemur  -13.00642014 -23.30573082 -19.11647034
ltibia  3.058490992 1.691868067 15.77205753
lfoot  1.25273478 -28.83436966 31.44338608
ltoes  -8.672365207 -18.09171615 -116.1589583
206
root  35.05289573 36.47052434 -14.90527476 11.63729954 10.13160896 4.959679127
lowerback  -8.63698101 2.680310011 2.449930429
upperback  -4.480529785 2.988480091 -4.705339909
thorax  0.5682420135 1.223099947 -6.007989883
lowerneck  -15.02000046 -4.823420048 -0.9810230136
upperneck  12.8757 -7.679180145 6.869639874
head  6.715109825 -3.278239965 1.566650152
lclavicle  0 -4.497500157e-015 -2.743230041e-014
lhumerus  -44.3771019 27.43420029 66.71759796
lradius  -0.1161913872 -6.507048965e-006 26.28499985
lwrist  4.824992743e-007 -3.790274832e-007 -33.91030121
lhand  -4.442054512e-031 -37.35129929 -10.63700008
lfingers  90 7.125020027 -90
lthumb  95.01920659 -25.45712614 101.5480451
rclavicle  0 -4.497500157e-015 -2.743230041e-014
rhumerus  46.40359497 -8.321317673 -48.10829926
rradius  -5.16745672e-007 2.214343908e-008 64.54570007
rwrist  1.380293725e-006 2.528095422e-007 -174.154007
rhand  -1.77126677e-031 4.599510193 -7.897389889
rfingers  -90 -7.125020027 -90
rthumb  -85.21218537 -8.230057354 -59.66744354
rfemur  -14.89568806 10.77523804 13.75479984
rtibia  -3.193011999 1.129231572 24.6273098
rfoot  -2.927959681 -16.20735359 -43.67975235
rtoes  3.844962846 19.64179612 -101.3067268
lfemur  -13.02928925 -23.24596977 -19.08256912
ltibia  3.022430182 1.656291485 15.8231039
lfoot  1.235159874 -28.7762661 31.48949051
ltoes  -8.668909332 -18.09332925 -116.1478302
207
root  35.05515452 36.47159066 -14.90536637 11.61740494 9.939974785 4.921797752
lowerback  -8.628548622 2.658960104 2.422829628
upperback  -4.442840099 2.964220047 -4.730060101
thorax  0.599726975 1.212890029 -6.020669937
lowerneck  -15.11989975 -4.738019943 -0.8159989715
upperneck  12.88689995 -7.591519833 6.811180115
head  6.723760128 -3.230450153 1.528839946
lclavicle  0 -4.497500157e-015 -2.743230041e-014
lhumerus  -44.2641983 27.1243 66.89679718
lradius  -0.116206862 -6.507048965e-006 26.3105011
lwrist  4.824992743e-007 -3.790274832e-007 -33.6556015
lhand  -4.443274011e-031 -37.37189865 -10.64760017
lfingers  90 7.125020027 -90
lthumb  95.0311951 -25.46685414 101.5710074
rclavicle  0 -4.497500157e-015 -2.743230041e-014
rhumerus  45.11349869 -8.198659897 -47.77220154
rradius  -5.16745672e-007 2.214343908e-008 66.20469666
rwrist  1.380293725e-006 2.528095422e-007 -175.0639954
rhand  -1.770969401e-031 4.478330135 -7.969220161
rfingers  -90 -7.125020027 -90
rthumb  -85.2759351 -8.159669624 -59.79055671
rfemur  -14.91110229 10.821105 13.73744583
rtibia  -3.150122404 1.12811327 24.60782433
rfoot  -2.897336245 -16.28352356 -43.55397797
rtoes  3.846779041 19.64145403 -101.31213
lfemur  -12.98164558 -23.11619568 -19.08195114
ltibia  3.020798445 1.656785965 15.7895174
lfoot  1.229872823 -28.76191139 31.56286049
ltoes  -8.639019757 -18.10724723 -116.0516236
208
root  35.05671043 36.47190004 -14.90369932 11.58564091 9.772361755 4.886548996
lowerback  -8.594341278 2.61590004 2.345410347
upperback  -4.432059765 2.912650108 -4.717850208
thorax  0.5814980268 1.187950015 -5.969449997
lowerneck  -15.19400024 -4.644440174 -0.7363569736
upperneck  12.90929985 -7.483539581 6.801280022
head  6.736179829 -3.173259735 1.522850037
lclavicle  0 -4.497500157e-015 -2.743230041e-014
lhumerus  -44.30239868 26.99349976 66.9598999
lradius  -0.1162200198 -6.507048965e-006 26.34150124
lwrist  4.824992743e-007 -3.790274832e-007 -33.63470078
lhand  -4.445301581e-031 -37.40610123 -10.61030006
lfingers  90 7.125020027 -90
lthumb  95.03889657 -25.42898564 101.6039999
rclavicle  0 -4.497500157e-015 -2.743230041e-014
rhumerus  43.86039734 -8.021529198 -47.66500092
rradius  -5.16745672e-007 2.214343908e-008 67.85849762
rwrist  1.380293725e-006 2.528095422e-007 -175.6159973
rhand  -1.771034257e-031 4.505040169 -7.966340065
rfingers  -90 -7.125020027 -90
rthumb  -85.2685288 -8.163959088 -59.76434818
rfemur  -14.89917469 10.90281296 13.72423077
rtibia  -3.105719566 1.129436731 24.57821083
rfoot  -2.876019239 -16.35650826 -43.48937607
rtoes  3.838980138 19.6429218 -101.288929
lfemur  -12.89118481 -23.0178051 -19.09563446
ltibia  3.035698652 1.665489793 15.72140789
lfoot  1.237182379 -28.75568771 31.67086029
ltoes  -8.627735139 -18.11248621 -116.01532
